<?xml version="1.0" standalone="no"?>
<!DOCTYPE svg PUBLIC "-//W3C//DTD SVG 20010904//EN"
 "http://www.w3.org/TR/2001/REC-SVG-20010904/DTD/svg10.dtd">
<svg version="1.0" xmlns="http://www.w3.org/2000/svg"
 width="555.000000pt" height="150.000000pt" viewBox="0 0 555.000000 150.000000"
 preserveAspectRatio="xMidYMid meet">

<g transform="translate(0.000000,150.000000) scale(0.100000,-0.100000)"
fill="#000000" stroke="none">
<path d="M99 1348 c-43 -192 16 -396 151 -527 279 -271 750 -172 895 187 30
74 49 191 41 250 -10 70 -27 141 -36 147 -6 4 -173 -68 -188 -80 -6 -5 38 -85
46 -85 4 1 18 7 32 15 43 25 50 19 50 -38 0 -91 -58 -259 -94 -273 -7 -3 -38
11 -69 29 -31 19 -85 43 -120 53 l-64 18 -18 75 c-10 42 -24 98 -32 124 l-14
48 -46 -3 -47 -3 -30 -119 -31 -119 -68 -23 c-37 -13 -92 -37 -121 -53 -29
-17 -56 -31 -60 -31 -12 0 -56 80 -76 139 -23 69 -28 191 -7 191 6 -1 23 -7
37 -15 14 -8 28 -14 32 -15 8 0 52 80 46 84 -6 6 -185 86 -190 86 -3 0 -12
-28 -19 -62z m576 -422 c20 -76 34 -144 31 -152 -4 -10 -23 -14 -65 -14 -95 0
-93 -9 -49 158 21 81 38 149 38 151 0 19 14 -25 45 -143z m-185 -7 c0 -19 -23
-104 -30 -112 -9 -10 -80 24 -99 47 -11 13 -4 19 46 45 62 32 83 37 83 20z
m371 -20 c52 -26 59 -32 48 -45 -19 -23 -90 -57 -99 -47 -4 4 -14 34 -23 66
-19 69 -14 71 74 26z"/>
<path d="M1555 918 c-67 -23 -114 -97 -101 -160 10 -53 42 -84 131 -127 67
-33 86 -48 91 -68 15 -59 -93 -85 -175 -43 -21 10 -41 16 -45 13 -9 -9 -7 -76
2 -90 12 -20 118 -35 184 -28 104 12 167 81 153 165 -10 56 -45 94 -123 130
-77 37 -102 56 -102 80 0 21 28 46 60 53 23 5 75 -2 128 -18 21 -7 22 -4 22
39 0 41 -3 48 -26 56 -33 13 -160 11 -199 -2z"/>
<path d="M1880 754 c0 -91 5 -186 11 -211 24 -93 110 -141 230 -127 77 9 117
36 149 99 23 46 25 63 28 228 l4 177 -61 0 -61 0 0 -180 c0 -179 0 -181 -25
-205 -35 -36 -102 -35 -136 1 -23 25 -24 31 -27 205 l-3 179 -55 0 -54 0 0
-166z"/>
<path d="M2410 670 l0 -250 50 0 50 0 1 203 c0 190 1 199 14 152 8 -27 39
-117 68 -200 l55 -150 47 0 48 0 35 100 c19 55 49 147 68 205 l33 105 1 -208
0 -208 53 3 52 3 3 248 2 247 -83 0 -83 0 -60 -180 c-32 -98 -62 -179 -65
-180 -4 0 -9 12 -12 28 -3 15 -29 96 -57 180 l-52 152 -84 0 -84 0 0 -250z"/>
<path d="M3100 670 l0 -250 50 0 50 0 0 203 1 202 50 -145 c28 -80 60 -171 71
-203 l20 -58 47 3 46 3 47 135 c27 74 57 164 67 200 l20 65 0 -202 1 -203 55
0 55 0 0 250 0 251 -82 -3 -82 -3 -62 -179 -61 -179 -60 179 -60 179 -86 3
-87 3 0 -251z"/>
<path d="M3837 678 c-48 -134 -87 -246 -87 -250 0 -5 26 -8 59 -8 l58 0 15 53
15 52 93 0 93 0 17 -50 17 -50 61 -3 62 -3 -35 98 c-19 54 -59 166 -88 248
l-54 150 -69 3 -69 3 -88 -243z m197 13 c25 -69 24 -71 -44 -71 -33 0 -60 3
-60 7 0 7 46 165 57 193 3 9 11 -6 18 -35 8 -27 21 -70 29 -94z"/>
<path d="M4300 670 l0 -250 60 0 60 0 0 96 0 95 32 -3 c29 -3 38 -13 88 -93
l56 -90 124 0 123 0 17 50 17 50 93 0 93 0 17 -50 17 -50 60 -3 61 -3 -40 113
c-22 62 -61 174 -88 248 l-47 135 -69 3 -69 3 -79 -218 c-44 -120 -85 -231
-92 -247 l-12 -30 -56 87 c-31 48 -67 97 -81 109 l-24 21 31 21 c68 46 92 113
64 179 -25 60 -73 77 -228 77 l-128 0 0 -250z m230 150 c48 -48 8 -120 -67
-120 l-43 0 0 70 0 70 45 0 c32 0 51 -6 65 -20z m469 -89 c17 -55 31 -102 31
-105 0 -3 -29 -6 -64 -6 l-65 0 30 87 c16 48 29 95 29 105 0 35 9 17 39 -81z"/>
<path d="M5280 670 l0 -251 57 3 58 3 0 245 0 245 -57 3 -58 3 0 -251z"/>
<path d="M114 786 c-3 -8 -4 -31 -2 -52 l3 -37 254 -114 c139 -62 258 -113
265 -113 6 0 125 50 264 112 l252 112 0 53 0 52 -47 -21 c-27 -11 -142 -63
-258 -115 l-209 -94 -151 67 c-373 167 -366 164 -371 150z"/>
<path d="M186 582 c-2 -4 -7 -23 -11 -43 l-7 -36 76 -33 c67 -29 76 -35 70
-54 -4 -12 -8 -22 -9 -24 -1 -1 -32 11 -69 28 -38 16 -72 30 -76 30 -8 0 -30
-54 -30 -75 0 -7 38 -29 85 -50 61 -27 85 -43 85 -56 0 -30 -12 -29 -93 7 -43
19 -82 34 -86 34 -5 0 -12 -12 -15 -27 -4 -16 -9 -35 -12 -44 -3 -12 26 -29
123 -72 71 -31 134 -58 142 -59 11 -2 19 36 37 177 13 99 23 187 23 195 1 10
-35 32 -103 63 -106 48 -121 53 -130 39z"/>
<path d="M955 544 c-55 -25 -101 -47 -103 -49 -3 -3 39 -388 44 -393 3 -5 255
107 270 119 13 11 -2 89 -17 89 -4 0 -44 -16 -88 -35 -43 -19 -82 -35 -85 -35
-3 0 -6 11 -6 24 0 19 13 29 83 61 45 20 83 39 85 40 8 7 -20 85 -31 85 -7 0
-41 -14 -75 -30 -66 -31 -82 -31 -82 -1 0 13 22 28 76 51 l76 33 -7 36 c-12
64 -10 64 -140 5z"/>
<path d="M450 228 c0 -7 -3 -29 -6 -49 l-6 -35 95 -42 c52 -23 98 -42 102 -42
4 0 49 19 101 42 l95 41 -7 46 c-4 25 -8 47 -9 49 -1 1 -33 -12 -71 -29 -38
-17 -78 -35 -90 -39 -15 -6 -45 3 -108 31 -100 44 -96 43 -96 27z"/>
</g>
</svg>
